<?xml version="1.0" standalone="no"?>
<!DOCTYPE svg PUBLIC "-//W3C//DTD SVG 20010904//EN"
 "http://www.w3.org/TR/2001/REC-SVG-20010904/DTD/svg10.dtd">
<svg version="1.0" xmlns="http://www.w3.org/2000/svg"
 width="920.000000pt" height="920.000000pt" viewBox="0 0 920.000000 920.000000"
 preserveAspectRatio="xMidYMid meet">

<g transform="translate(0.000000,920.000000) scale(0.100000,-0.100000)"
fill="#000000" stroke="none">
<path d="M4330 7394 c-635 -76 -1112 -278 -1589 -672 -196 -163 -376 -367
-541 -614 -220 -330 -363 -695 -436 -1113 -36 -204 -45 -567 -20 -785 90 -778
479 -1472 1091 -1947 238 -185 457 -308 745 -420 100 -39 123 -44 173 -41 46
3 63 10 87 33 50 48 53 71 45 363 -4 147 -8 268 -9 269 -2 2 -50 -4 -107 -13
-124 -19 -332 -14 -424 10 -111 30 -233 98 -308 173 -60 60 -77 86 -141 218
-102 209 -164 288 -301 382 -67 46 -119 105 -112 127 6 20 72 46 117 46 61 0
152 -25 214 -58 75 -40 182 -146 244 -241 99 -154 196 -237 330 -283 120 -41
305 -30 460 29 32 12 44 22 48 42 27 137 74 245 135 315 l38 43 -112 17 c-650
98 -1013 397 -1142 939 -53 223 -64 522 -26 704 37 180 110 336 221 474 32 40
48 69 44 79 -19 48 -43 167 -49 245 -10 135 22 341 72 467 l16 41 86 -6 c48
-3 126 -17 176 -32 105 -30 313 -130 437 -209 l88 -55 107 24 c416 94 878 90
1275 -11 l56 -14 89 55 c227 143 449 232 604 242 83 6 87 5 102 -18 25 -38 66
-203 78 -316 13 -122 1 -262 -31 -367 l-21 -67 36 -41 c49 -53 121 -165 155
-241 75 -165 102 -305 102 -513 -2 -302 -49 -530 -156 -741 -172 -343 -493
-547 -986 -628 -52 -8 -110 -18 -128 -21 l-32 -5 39 -47 c52 -63 97 -154 123
-255 22 -79 22 -99 23 -572 0 -468 1 -491 20 -522 10 -18 33 -39 51 -48 57
-27 114 -19 256 37 413 160 806 433 1095 757 345 387 571 834 677 1339 75 357
76 790 1 1156 -152 753 -595 1404 -1245 1832 -348 229 -711 367 -1164 441 -88
14 -592 27 -676 17z"/>
<path d="M2753 3323 c-22 -8 -14 -43 12 -55 19 -8 28 -8 39 2 28 23 -14 65
-51 53z"/>
<path d="M2867 3223 c-25 -25 14 -88 50 -81 29 5 28 43 -3 67 -28 22 -37 25
-47 14z"/>
<path d="M2977 3073 c-12 -11 -7 -48 9 -71 32 -46 91 -13 64 37 -16 31 -58 50
-73 34z"/>
<path d="M3115 2906 c-16 -12 -18 -19 -10 -41 14 -36 59 -63 83 -49 28 18 26
42 -6 74 -35 34 -41 36 -67 16z"/>
<path d="M3300 2775 c-10 -12 -9 -20 4 -40 30 -46 97 -44 104 3 6 41 -80 71
-108 37z"/>
<path d="M3768 2769 c-20 -11 -24 -54 -7 -65 34 -21 109 8 109 42 0 29 -67 44
-102 23z"/>
<path d="M3542 2738 c-30 -30 -5 -68 44 -68 31 0 64 21 64 40 0 33 -82 54
-108 28z"/>
</g>
</svg>
